<svg xmlns="http://www.w3.org/2000/svg" viewBox="0 0 64 64" shape-rendering="geometricPrecision" xmlns:v="https://vecta.io/nano"><rect width="64" height="64" rx="14" fill="#174be6"/><path d="M10 22l8 10-8 10" stroke="#fff" stroke-width="4" fill="none" stroke-linecap="round" stroke-linejoin="round" opacity=".7"/><g fill="#fff"><path d="M32.575 21.035h-2.94v2.87h2.94zM38.21 39.41H24v2.94h14.21zm12.67-11.06H36.565v2.905H50.88z"/><path d="M50.88 21h-5.67c-.77 0-1.509.306-2.054.851s-.851 1.284-.851 2.054V42.35h2.905v-17.5c.018-.572.478-1.032 1.05-1.05h4.62V21zm-21.245 4.27h-3.92v3.08h2.835c.599 0 1.085.486 1.085 1.085V42.35h2.94v-14a2.94 2.94 0 0 0-2.94-3.08zM52 39.41h9v2.94h-9z"/></g></svg>